<svg width="20" height="20" viewBox="0 0 20 20" fill="none" xmlns="http://www.w3.org/2000/svg">
<g opacity="0.5">
<path d="M4.37502 3.33333C3.65673 3.33333 2.96785 3.61867 2.45994 4.12658C1.95203 4.63449 1.66669 5.32337 1.66669 6.04166V13.125C1.66669 13.8433 1.95203 14.5322 2.45994 15.0401C2.96785 15.548 3.65673 15.8333 4.37502 15.8333H15.625C15.9807 15.8333 16.3329 15.7633 16.6615 15.6272C16.99 15.4911 17.2886 15.2916 17.5401 15.0401C17.7916 14.7886 17.9911 14.49 18.1272 14.1614C18.2633 13.8328 18.3334 13.4807 18.3334 13.125V6.04166C18.3334 5.686 18.2633 5.33382 18.1272 5.00523C17.9911 4.67664 17.7916 4.37807 17.5401 4.12658C17.2886 3.87509 16.99 3.67559 16.6615 3.53949C16.3329 3.40338 15.9807 3.33333 15.625 3.33333H4.37502ZM2.91669 6.04166C2.91669 5.23666 3.57002 4.58333 4.37502 4.58333H6.66669V5.58999C6.28283 5.42221 5.85731 5.37405 5.44567 5.4518C5.03403 5.52954 4.65538 5.72958 4.35916 6.0258C4.06294 6.32202 3.8629 6.70067 3.78516 7.11231C3.70741 7.52395 3.75557 7.94947 3.92335 8.33333H2.91669V6.04166ZM7.91669 7.49999C7.91669 7.33518 7.96556 7.17406 8.05713 7.03702C8.1487 6.89998 8.27885 6.79317 8.43112 6.7301C8.58339 6.66702 8.75094 6.65052 8.9126 6.68267C9.07425 6.71483 9.22273 6.7942 9.33928 6.91074C9.45582 7.02728 9.53519 7.17577 9.56734 7.33742C9.5995 7.49907 9.58299 7.66663 9.51992 7.8189C9.45685 7.97117 9.35004 8.10132 9.213 8.19289C9.07595 8.28445 8.91484 8.33333 8.75002 8.33333H7.91669V7.49999ZM6.66669 8.33333H5.83335C5.66854 8.33333 5.50742 8.28445 5.37038 8.19289C5.23334 8.10132 5.12653 7.97117 5.06345 7.8189C5.00038 7.66663 4.98388 7.49907 5.01603 7.33742C5.04819 7.17577 5.12755 7.02728 5.2441 6.91074C5.36064 6.7942 5.50913 6.71483 5.67078 6.68267C5.83243 6.65052 5.99998 6.66702 6.15226 6.7301C6.30453 6.79317 6.43468 6.89998 6.52624 7.03702C6.61781 7.17406 6.66669 7.33518 6.66669 7.49999V8.33333ZM6.66669 10.4667V14.5833H4.37502C3.98825 14.5833 3.61731 14.4297 3.34382 14.1562C3.07033 13.8827 2.91669 13.5118 2.91669 13.125V9.58333H5.78335L4.35002 11.0167C4.28861 11.0739 4.23936 11.1429 4.2052 11.2195C4.17104 11.2962 4.15267 11.379 4.15119 11.4629C4.14971 11.5468 4.16515 11.6302 4.19658 11.708C4.22802 11.7858 4.27481 11.8565 4.33415 11.9159C4.3935 11.9752 4.4642 12.022 4.54202 12.0534C4.61985 12.0849 4.7032 12.1003 4.78712 12.0988C4.87104 12.0973 4.9538 12.079 5.03047 12.0448C5.10713 12.0107 5.17614 11.9614 5.23335 11.9L6.66669 10.4667ZM7.91669 14.5833V10.4667L9.35002 11.9C9.40724 11.9614 9.47624 12.0107 9.55291 12.0448C9.62957 12.079 9.71233 12.0973 9.79625 12.0988C9.88017 12.1003 9.96353 12.0849 10.0414 12.0534C10.1192 12.022 10.1899 11.9752 10.2492 11.9159C10.3086 11.8565 10.3554 11.7858 10.3868 11.708C10.4182 11.6302 10.4337 11.5468 10.4322 11.4629C10.4307 11.379 10.4123 11.2962 10.3782 11.2195C10.344 11.1429 10.2948 11.0739 10.2334 11.0167L8.80002 9.58333H17.0834V13.125C17.0834 13.3165 17.0456 13.5061 16.9723 13.6831C16.8991 13.86 16.7916 14.0208 16.6562 14.1562C16.5208 14.2916 16.36 14.399 16.1831 14.4723C16.0062 14.5456 15.8165 14.5833 15.625 14.5833H7.91669ZM7.91669 5.58999V4.58333H15.625C16.43 4.58333 17.0834 5.23666 17.0834 6.04166V8.33333H10.66C10.8278 7.94947 10.876 7.52395 10.7982 7.11231C10.7205 6.70067 10.5204 6.32202 10.2242 6.0258C9.92799 5.72958 9.54935 5.52954 9.1377 5.4518C8.72606 5.37405 8.30054 5.42221 7.91669 5.58999Z" fill="#0F2837"/>
</g>
</svg>
