<svg width="20" height="20" viewBox="0 0 20 20" fill="none" xmlns="http://www.w3.org/2000/svg">
<g opacity="0.5">
<path d="M12.5 4.16667V5.83333V4.16667ZM12.5 9.16667V10.8333V9.16667ZM12.5 14.1667V15.8333V14.1667ZM4.16667 4.16667C3.72464 4.16667 3.30072 4.34226 2.98816 4.65482C2.67559 4.96738 2.5 5.39131 2.5 5.83333V8.33333C2.94203 8.33333 3.36595 8.50893 3.67851 8.82149C3.99107 9.13405 4.16667 9.55797 4.16667 10C4.16667 10.442 3.99107 10.866 3.67851 11.1785C3.36595 11.4911 2.94203 11.6667 2.5 11.6667V14.1667C2.5 14.6087 2.67559 15.0326 2.98816 15.3452C3.30072 15.6577 3.72464 15.8333 4.16667 15.8333H15.8333C16.2754 15.8333 16.6993 15.6577 17.0118 15.3452C17.3244 15.0326 17.5 14.6087 17.5 14.1667V11.6667C17.058 11.6667 16.634 11.4911 16.3215 11.1785C16.0089 10.866 15.8333 10.442 15.8333 10C15.8333 9.55797 16.0089 9.13405 16.3215 8.82149C16.634 8.50893 17.058 8.33333 17.5 8.33333V5.83333C17.5 5.39131 17.3244 4.96738 17.0118 4.65482C16.6993 4.34226 16.2754 4.16667 15.8333 4.16667H4.16667Z" stroke="#0F2837" stroke-width="2" stroke-linecap="round" stroke-linejoin="round"/>
</g>
</svg>
