<svg width="20" height="20" viewBox="0 0 20 20" fill="none" xmlns="http://www.w3.org/2000/svg">
<path d="M4.37499 3.33334C3.6567 3.33334 2.96782 3.61868 2.45991 4.12659C1.952 4.6345 1.66666 5.32337 1.66666 6.04167V13.125C1.66666 13.8433 1.952 14.5322 2.45991 15.0401C2.96782 15.548 3.6567 15.8333 4.37499 15.8333H15.625C15.9807 15.8333 16.3328 15.7633 16.6614 15.6272C16.99 15.4911 17.2886 15.2916 17.5401 15.0401C17.7916 14.7886 17.9911 14.49 18.1272 14.1614C18.2633 13.8328 18.3333 13.4807 18.3333 13.125V6.04167C18.3333 5.68601 18.2633 5.33383 18.1272 5.00523C17.9911 4.67664 17.7916 4.37808 17.5401 4.12659C17.2886 3.8751 16.99 3.6756 16.6614 3.5395C16.3328 3.40339 15.9807 3.33334 15.625 3.33334H4.37499ZM2.91666 6.04167C2.91666 5.23667 3.56999 4.58334 4.37499 4.58334H6.66666V5.59C6.2828 5.42222 5.85728 5.37406 5.44564 5.45181C5.034 5.52955 4.65535 5.72959 4.35913 6.02581C4.06291 6.32203 3.86287 6.70068 3.78513 7.11232C3.70738 7.52396 3.75554 7.94948 3.92332 8.33334H2.91666V6.04167ZM7.91666 7.5C7.91666 7.33518 7.96553 7.17407 8.0571 7.03703C8.14867 6.89999 8.27881 6.79318 8.43109 6.7301C8.58336 6.66703 8.75091 6.65053 8.91256 6.68268C9.07422 6.71484 9.2227 6.7942 9.33925 6.91075C9.45579 7.02729 9.53516 7.17578 9.56731 7.33743C9.59946 7.49908 9.58296 7.66663 9.51989 7.81891C9.45682 7.97118 9.35001 8.10133 9.21297 8.19289C9.07592 8.28446 8.91481 8.33334 8.74999 8.33334H7.91666V7.5ZM6.66666 8.33334H5.83332C5.66851 8.33334 5.50739 8.28446 5.37035 8.19289C5.23331 8.10133 5.1265 7.97118 5.06342 7.81891C5.00035 7.66663 4.98385 7.49908 5.016 7.33743C5.04816 7.17578 5.12752 7.02729 5.24407 6.91075C5.36061 6.7942 5.5091 6.71484 5.67075 6.68268C5.8324 6.65053 5.99995 6.66703 6.15223 6.7301C6.3045 6.79318 6.43465 6.89999 6.52621 7.03703C6.61778 7.17407 6.66666 7.33518 6.66666 7.5V8.33334ZM6.66666 10.4667V14.5833H4.37499C3.98822 14.5833 3.61728 14.4297 3.34379 14.1562C3.0703 13.8827 2.91666 13.5118 2.91666 13.125V9.58334H5.78332L4.34999 11.0167C4.28858 11.0739 4.23933 11.1429 4.20517 11.2196C4.17101 11.2962 4.15264 11.379 4.15116 11.4629C4.14968 11.5468 4.16512 11.6302 4.19655 11.708C4.22799 11.7858 4.27478 11.8565 4.33412 11.9159C4.39347 11.9752 4.46417 12.022 4.54199 12.0534C4.61982 12.0849 4.70317 12.1003 4.78709 12.0988C4.87101 12.0973 4.95377 12.079 5.03044 12.0448C5.1071 12.0107 5.1761 11.9614 5.23332 11.9L6.66666 10.4667ZM7.91666 14.5833V10.4667L9.34999 11.9C9.40721 11.9614 9.47621 12.0107 9.55287 12.0448C9.62954 12.079 9.7123 12.0973 9.79622 12.0988C9.88014 12.1003 9.9635 12.0849 10.0413 12.0534C10.1191 12.022 10.1898 11.9752 10.2492 11.9159C10.3085 11.8565 10.3553 11.7858 10.3868 11.708C10.4182 11.6302 10.4336 11.5468 10.4321 11.4629C10.4307 11.379 10.4123 11.2962 10.3781 11.2196C10.344 11.1429 10.2947 11.0739 10.2333 11.0167L8.79999 9.58334H17.0833V13.125C17.0833 13.3165 17.0456 13.5062 16.9723 13.6831C16.899 13.86 16.7916 14.0208 16.6562 14.1562C16.5208 14.2916 16.36 14.399 16.1831 14.4723C16.0061 14.5456 15.8165 14.5833 15.625 14.5833H7.91666ZM7.91666 5.59V4.58334H15.625C16.43 4.58334 17.0833 5.23667 17.0833 6.04167V8.33334H10.66C10.8278 7.94948 10.8759 7.52396 10.7982 7.11232C10.7204 6.70068 10.5204 6.32203 10.2242 6.02581C9.92796 5.72959 9.54932 5.52955 9.13767 5.45181C8.72603 5.37406 8.30051 5.42222 7.91666 5.59Z" fill="white"/>
</svg>
